<?xml version="1.0" encoding="UTF-8"?>
<svg width="180px" height="60px" viewBox="0 0 180 60" version="1.1" xmlns="http://www.w3.org/2000/svg" xmlns:xlink="http://www.w3.org/1999/xlink">
    <!-- Generator: Sketch 50.2 (55047) - http://www.bohemiancoding.com/sketch -->
    <title>codeconf_logo</title>
    <desc>Created with Sketch.</desc>
    <defs></defs>
    <g id="codeconf_logo" stroke="none" stroke-width="1" fill="none" fill-rule="evenodd">
        <g id="Group" transform="translate(13.000000, 8.500000)">
            <path d="M77.390625,40 L77.390625,29.328125 L78.546875,29.328125 L78.546875,38.8828125 L84,38.8828125 L84,40 L77.390625,40 Z M85.7538555,37.5546875 C85.7538555,37.1901023 85.8202611,36.8632827 85.9530743,36.5742188 C86.0858874,36.2851548 86.2486462,36.0507821 86.4413555,35.8710938 C86.6340648,35.6914054 86.878854,35.5377611 87.1757305,35.4101562 C87.472607,35.2825514 87.7356252,35.1888024 87.964793,35.1289062 C88.1939608,35.0690101 88.4660935,35.0234377 88.7811993,34.9921875 C89.096305,34.9609373 89.3202611,34.9427084 89.4530743,34.9375 C89.5858874,34.9322916 89.7434379,34.9296875 89.9257305,34.9296875 L91.2069805,35.0078125 C91.2069805,34.2942673 91.0103679,33.7851578 90.6171368,33.4804688 C90.2239056,33.1757797 89.6418802,33.0234375 88.871043,33.0234375 C88.0064553,33.0234375 87.2278173,33.1510404 86.5351055,33.40625 L86.5351055,32.2890625 C87.3215678,32.0130195 88.1210389,31.875 88.933543,31.875 C90.0533403,31.875 90.9074984,32.1575493 91.496043,32.7226562 C92.0845876,33.2877632 92.3788555,34.1145779 92.3788555,35.203125 L92.3788555,37.6015625 C92.3788555,38.1119817 92.2603671,38.5481753 92.0233868,38.9101562 C91.7864064,39.2721372 91.4817219,39.5338534 91.1093243,39.6953125 C90.7369266,39.8567716 90.3879717,39.9687497 90.0624493,40.03125 C89.7369268,40.0937503 89.4153154,40.125 89.0976055,40.125 C88.8528126,40.125 88.601513,40.1093752 88.3436993,40.078125 C88.0858855,40.0468748 87.7942217,39.975261 87.4686993,39.8632812 C87.1431768,39.7513015 86.8606275,39.6080738 86.621043,39.4335938 C86.3814585,39.2591137 86.1770334,39.0091162 86.0077618,38.6835938 C85.8384901,38.3580713 85.7538555,37.981773 85.7538555,37.5546875 Z M86.902293,37.5546875 C86.902293,38.5546925 87.6262441,39.0546875 89.074168,39.0546875 L89.0976055,39.0546875 C90.5142793,39.0546875 91.2226055,38.5703173 91.2226055,37.6015625 L91.2226055,36.0625 C90.8684371,35.9999997 90.3944835,35.96875 89.8007305,35.96875 C87.8684292,35.96875 86.902293,36.4973905 86.902293,37.5546875 Z M94.617086,34.1953125 C94.617086,33.5546843 94.8501566,33.0078148 95.3163048,32.5546875 C95.7824529,32.1015602 96.4946854,31.875 97.4530235,31.875 C98.1353186,31.875 98.8176034,32.0390609 99.4998985,32.3671875 L99.4998985,33.5234375 C98.8905205,33.1588523 98.2499019,32.9765625 97.5780235,32.9765625 C96.3748925,32.9765625 95.773336,33.3828084 95.773336,34.1953125 C95.773336,34.4713555 95.9191679,34.6940096 96.210836,34.8632812 C96.5025041,35.0325529 96.8592714,35.1731765 97.2811485,35.2851562 C97.7030256,35.397136 98.1248964,35.5312492 98.5467735,35.6875 C98.9686506,35.8437508 99.3267199,36.1080711 99.6209923,36.4804688 C99.9152646,36.8528664 100.062399,37.3281221 100.062399,37.90625 C100.062399,38.5989618 99.8032865,39.1419251 99.2850548,39.5351562 C98.766823,39.9283874 98.0493823,40.125 97.132711,40.125 C96.2472899,40.125 95.4426105,39.9244812 94.7186485,39.5234375 L94.7186485,38.3046875 C95.4842773,38.7734398 96.2733319,39.0078125 97.085836,39.0078125 C98.2993837,39.0078125 98.9061485,38.6406287 98.9061485,37.90625 C98.9061485,37.5104147 98.7603166,37.200522 98.4686485,36.9765625 C98.1769804,36.752603 97.8202131,36.584636 97.398336,36.4726562 C96.9764589,36.3606765 96.5545881,36.2382819 96.132711,36.1054688 C95.7108339,35.9726556 95.3527646,35.7486995 95.0584923,35.4335938 C94.7642199,35.118488 94.617086,34.7057317 94.617086,34.1953125 Z M107.28886,29.328125 L108.515422,29.328125 L111.960735,38.3515625 L115.38261,29.328125 L116.616985,29.328125 L112.515422,40 L111.38261,40 L107.28886,29.328125 Z M117.831778,36.109375 L117.831778,35.9921875 C117.831778,33.2473821 119.001037,31.875 121.33959,31.875 C121.829176,31.875 122.273182,31.9518221 122.671621,32.1054688 C123.070061,32.2591154 123.386464,32.4401031 123.62084,32.6484375 C123.855216,32.8567719 124.060943,33.1289046 124.238028,33.4648438 C124.415112,33.8007829 124.541413,34.0859363 124.616934,34.3203125 C124.692455,34.5546887 124.751048,34.83854 124.792715,35.171875 C124.834382,35.4947933 124.855215,35.6979162 124.855215,35.78125 L124.855215,36.125 L124.823965,36.6875 L119.003653,36.6875 C119.07657,37.4895873 119.321359,38.0716128 119.738028,38.4335938 C120.154696,38.7955747 120.771878,38.9765625 121.58959,38.9765625 C122.751054,38.9765625 123.665108,38.7786478 124.331778,38.3828125 L124.331778,39.5703125 C123.56094,39.940106 122.626054,40.125 121.52709,40.125 L121.480215,40.125 C121.011463,40.125 120.581779,40.069011 120.191153,39.9570312 C119.800526,39.8450515 119.416415,39.651043 119.038809,39.375 C118.661203,39.098957 118.365633,38.6835965 118.15209,38.1289062 C117.938547,37.574216 117.831778,36.9010456 117.831778,36.109375 Z M119.003653,35.6640625 L123.675528,35.6640625 C123.675528,35.4817699 123.653392,35.278647 123.609121,35.0546875 C123.56485,34.830728 123.476309,34.5429705 123.343496,34.1914062 C123.210683,33.839842 122.971102,33.5468762 122.624746,33.3125 C122.27839,33.0781238 121.850009,32.9609375 121.33959,32.9609375 C120.547919,32.9609375 119.973706,33.1666646 119.616934,33.578125 C119.260161,33.9895854 119.055736,34.6848909 119.003653,35.6640625 Z M126.968446,35.96875 C126.968446,35.1354125 127.080424,34.4283883 127.304383,33.8476562 C127.528342,33.2669242 127.829121,32.8437513 128.206727,32.578125 C128.584333,32.3124987 128.943704,32.1289068 129.284852,32.0273438 C129.625999,31.9257807 129.984069,31.875 130.359071,31.875 C131.041366,31.875 131.614277,31.9700511 132.077821,32.1601562 C132.541364,32.3502614 132.866882,32.5950506 133.054383,32.8945312 C133.241884,33.1940119 133.368185,33.4531239 133.433289,33.671875 C133.498394,33.8906261 133.530946,34.1067698 133.530946,34.3203125 L133.530946,40.3359375 C133.530946,40.6901059 133.480165,41.0156235 133.378602,41.3125 C133.277039,41.6093765 133.109072,41.8997382 132.874696,42.1835938 C132.640319,42.4674493 132.28225,42.6888013 131.800477,42.8476562 C131.318704,43.0065112 130.736678,43.0859375 130.054383,43.0859375 C129.309588,43.0859375 128.551783,42.9895843 127.780946,42.796875 L127.780946,41.7109375 C128.463241,41.9036468 129.179379,42 129.929383,42 C130.439802,42 130.868183,41.9544275 131.214539,41.8632812 C131.560895,41.772135 131.812195,41.6419279 131.968446,41.4726562 C132.124696,41.3033846 132.231466,41.1354175 132.288758,40.96875 C132.34605,40.8020825 132.374696,40.6015637 132.374696,40.3671875 L132.374696,39.5703125 C131.775734,39.7630218 131.15074,39.859375 130.499696,39.859375 C130.145527,39.859375 129.814801,39.8294274 129.507508,39.7695312 C129.200215,39.7096351 128.886416,39.5911467 128.566102,39.4140625 C128.245788,39.2369783 127.971051,39.0078139 127.741883,38.7265625 C127.512715,38.4453111 127.326519,38.0703148 127.183289,37.6015625 C127.040059,37.1328102 126.968446,36.5885448 126.968446,35.96875 Z M128.116883,35.96875 C128.116883,36.5677113 128.180684,37.061196 128.308289,37.4492188 C128.435894,37.8372415 128.623392,38.1249991 128.870789,38.3125 C129.118186,38.5000009 129.366882,38.6249997 129.616883,38.6875 C129.866884,38.7500003 130.161152,38.78125 130.499696,38.78125 C131.140324,38.78125 131.765317,38.6588554 132.374696,38.4140625 L132.374696,34.2734375 C132.374696,33.3775997 131.702827,32.9296875 130.359071,32.9296875 C130.072611,32.9296875 129.817405,32.9635413 129.593446,33.03125 C129.369486,33.0989587 129.135113,33.2291657 128.890321,33.421875 C128.645528,33.6145843 128.455425,33.9270812 128.320008,34.359375 C128.184591,34.7916688 128.116883,35.3281218 128.116883,35.96875 Z M135.901989,37.5546875 C135.901989,37.1901023 135.968394,36.8632827 136.101207,36.5742188 C136.23402,36.2851548 136.396779,36.0507821 136.589489,35.8710938 C136.782198,35.6914054 137.026987,35.5377611 137.323864,35.4101562 C137.62074,35.2825514 137.883758,35.1888024 138.112926,35.1289062 C138.342094,35.0690101 138.614227,35.0234377 138.929332,34.9921875 C139.244438,34.9609373 139.468394,34.9427084 139.601207,34.9375 C139.73402,34.9322916 139.891571,34.9296875 140.073864,34.9296875 L141.355114,35.0078125 C141.355114,34.2942673 141.158501,33.7851578 140.76527,33.4804688 C140.372039,33.1757797 139.790013,33.0234375 139.019176,33.0234375 C138.154588,33.0234375 137.37595,33.1510404 136.683239,33.40625 L136.683239,32.2890625 C137.469701,32.0130195 138.269172,31.875 139.081676,31.875 C140.201473,31.875 141.055631,32.1575493 141.644176,32.7226562 C142.232721,33.2877632 142.526989,34.1145779 142.526989,35.203125 L142.526989,37.6015625 C142.526989,38.1119817 142.4085,38.5481753 142.17152,38.9101562 C141.934539,39.2721372 141.629855,39.5338534 141.257457,39.6953125 C140.88506,39.8567716 140.536105,39.9687497 140.210582,40.03125 C139.88506,40.0937503 139.563448,40.125 139.245739,40.125 C139.000946,40.125 138.749646,40.1093752 138.491832,40.078125 C138.234018,40.0468748 137.942355,39.975261 137.616832,39.8632812 C137.29131,39.7513015 137.008761,39.6080738 136.769176,39.4335938 C136.529591,39.2591137 136.325166,39.0091162 136.155895,38.6835938 C135.986623,38.3580713 135.901989,37.981773 135.901989,37.5546875 Z M137.050426,37.5546875 C137.050426,38.5546925 137.774377,39.0546875 139.222301,39.0546875 L139.245739,39.0546875 C140.662412,39.0546875 141.370739,38.5703173 141.370739,37.6015625 L141.370739,36.0625 C141.01657,35.9999997 140.542616,35.96875 139.948864,35.96875 C138.016562,35.96875 137.050426,36.4973905 137.050426,37.5546875 Z M144.765219,34.1953125 C144.765219,33.5546843 144.99829,33.0078148 145.464438,32.5546875 C145.930586,32.1015602 146.642818,31.875 147.601157,31.875 C148.283452,31.875 148.965736,32.0390609 149.648032,32.3671875 L149.648032,33.5234375 C149.038653,33.1588523 148.398035,32.9765625 147.726157,32.9765625 C146.523025,32.9765625 145.921469,33.3828084 145.921469,34.1953125 C145.921469,34.4713555 146.067301,34.6940096 146.358969,34.8632812 C146.650637,35.0325529 147.007404,35.1731765 147.429282,35.2851562 C147.851159,35.397136 148.273029,35.5312492 148.694907,35.6875 C149.116784,35.8437508 149.474853,36.1080711 149.769125,36.4804688 C150.063398,36.8528664 150.210532,37.3281221 150.210532,37.90625 C150.210532,38.5989618 149.95142,39.1419251 149.433188,39.5351562 C148.914956,39.9283874 148.197515,40.125 147.280844,40.125 C146.395423,40.125 145.590743,39.9244812 144.866782,39.5234375 L144.866782,38.3046875 C145.63241,38.7734398 146.421465,39.0078125 147.233969,39.0078125 C148.447517,39.0078125 149.054282,38.6406287 149.054282,37.90625 C149.054282,37.5104147 148.90845,37.200522 148.616782,36.9765625 C148.325113,36.752603 147.968346,36.584636 147.546469,36.4726562 C147.124592,36.3606765 146.702721,36.2382819 146.280844,36.1054688 C145.858967,35.9726556 145.500898,35.7486995 145.206625,35.4335938 C144.912353,35.118488 144.765219,34.7057317 144.765219,34.1953125 Z" id="Las-Vegas-Copy-3" fill="#00D8FF"></path>
            <text id="codeconf" font-family="Museo-700, Museo" font-size="27.5" font-weight="500" letter-spacing="-0.342623">
                <tspan x="0" y="26" fill="#FFFFFF">CODE</tspan>
                <tspan x="75.382008" y="26" fill="#F899B4">CONF</tspan>
            </text>
        </g>
    </g>
</svg>